<?xml version="1.0" standalone="no"?><!DOCTYPE svg PUBLIC "-//W3C//DTD SVG 1.1//EN" "http://www.w3.org/Graphics/SVG/1.1/DTD/svg11.dtd"><svg class="icon" width="200px" height="200.00px" viewBox="0 0 1024 1024" version="1.1" xmlns="http://www.w3.org/2000/svg"><path d="M512.055054 1005.28172c262.276129 0 475.003871-190.375914 475.003871-425.125161s-212.727742-425.015054-475.003871-425.015054S36.941075 345.407312 36.941075 580.156559 249.668817 1005.28172 512.055054 1005.28172z m0 18.71828C239.75914 1024 18.222796 825.806452 18.222796 580.156559s221.536344-443.733333 493.832258-443.733333 493.722151 198.193548 493.72215 443.733333S784.24086 1024 512.055054 1024z" fill="#4A3A3F" /><path d="M36.941075 580.266667a475.113978 425.015054 0 1 0 950.227957 0 475.113978 425.015054 0 1 0-950.227957 0Z" fill="#EE9FB5" /><path d="M513.596559 566.943656a36.996129 36.996129 0 0 1-9.35914 24.664086 36.996129 36.996129 0 0 1-9.359139-24.664086h18.718279a18.498065 18.498065 0 0 0 36.886022 0 9.35914 9.35914 0 0 1 18.718279 0 37.216344 37.216344 0 0 1-64.963441 24.664086 37.106237 37.106237 0 0 1-64.853333-24.664086 9.35914 9.35914 0 0 1 18.71828 0 18.387957 18.387957 0 1 0 36.775914 0z" fill="#33312B" /><path d="M291.950108 647.762581a87.205161 87.205161 0 1 1 86.654623-87.425377 86.874839 86.874839 0 0 1-86.654623 87.425377z m435.255053 0a87.205161 87.205161 0 1 1 86.544516-87.425377 86.874839 86.874839 0 0 1-86.544516 87.425377z" fill="#F9CBB2" /><path d="M499.502796 249.173333c62.100645 0 112.529892-14.864516 112.529892-56.264946S561.603441 99.096774 499.502796 99.096774s-112.529892 52.411183-112.529893 93.811613 50.429247 56.264946 112.529893 56.264946z m0 18.71828c-79.607742 0-131.248172-22.572043-131.248172-74.983226 0-55.824516 63.20172-112.529892 131.248172-112.529892s131.248172 56.705376 131.248172 112.529892c0 52.411183-51.64043 74.983226-131.248172 74.983226z" fill="#3E5143" /><path d="M499.502796 249.173333c62.100645 0 112.529892-14.864516 112.529892-56.264946S561.603441 99.096774 499.502796 99.096774s-112.529892 52.411183-112.529893 93.811613 50.429247 56.264946 112.529893 56.264946z" fill="#7DE296" /><path d="M399.525161 274.057634c62.100645 0 112.529892-14.864516 112.529893-56.264946s-69.147527-93.811613-131.35828-93.811613a93.371183 93.371183 0 0 0-93.701505 93.811613c0 41.510538 50.31914 56.264946 112.529892 56.264946z" fill="#7FDE96" /><path d="M624.474839 274.057634c-62.100645 0-112.419785-14.864516-112.419785-56.264946s69.037419-93.811613 131.248172-93.811613a93.371183 93.371183 0 0 1 93.701505 93.811613c0 41.510538-50.31914 56.264946-112.529892 56.264946z m0 18.71828c79.607742 0 131.248172-22.572043 131.248172-74.983226A111.649032 111.649032 0 0 0 643.303226 105.372903c-70.138495 0-149.415914 58.577204-149.415914 112.529893 0 52.411183 51.089892 74.983226 130.587527 74.983226z" fill="#3E5143" /><path d="M624.474839 274.057634c-62.100645 0-112.419785-14.864516-112.419785-56.264946s69.037419-93.811613 131.248172-93.811613a93.371183 93.371183 0 0 1 93.701505 93.811613c0 41.510538-50.31914 56.264946-112.529892 56.264946z" fill="#7FDE96" /><path d="M399.525161 274.057634c62.100645 0 112.529892-14.864516 112.529893-56.264946s-69.147527-93.811613-131.35828-93.811613a93.371183 93.371183 0 0 0-93.701505 93.811613c0 41.510538 50.31914 56.264946 112.529892 56.264946z m0 18.71828c-79.607742 0-131.248172-22.572043-131.248172-74.983226A111.649032 111.649032 0 0 1 380.696774 105.372903c70.138495 0 150.076559 58.246882 150.076559 112.529893 0 52.411183-51.750538 74.983226-131.248172 74.983226z" fill="#3E5143" /><path d="M489.483011 24.113548l-27.526882 175.070968h82.580645l27.526882-150.076559zM474.39828 0l119.136344 36.005161-33.582796 181.897635H440.154839z" fill="#3E5143" /><path d="M489.483011 24.113548l82.580645 24.994409-27.526882 150.076559h-82.580645l27.526882-175.070968z" fill="#7FDE96" /><path d="M512.055054 355.427097c82.80086 0 149.966452-19.709247 149.966451-74.983226s-67.165591-124.972043-149.966451-124.972043S361.75828 225.169892 361.75828 280.443871s67.385806 74.983226 150.296774 74.983226z" fill="#A2ECB5" /><path d="M512.055054 355.427097c82.80086 0 149.966452-19.709247 149.966451-74.983226s-67.165591-124.972043-149.966451-124.972043S361.75828 225.169892 361.75828 280.443871s67.385806 74.983226 150.296774 74.983226z m0 18.718279c-103.060645 0-168.794839-28.627957-168.794839-93.701505 0-70.79914 81.259355-143.139785 168.794839-143.139785s169.015054 72.340645 169.015054 143.139785c0 65.073548-66.064516 93.701505-169.015054 93.701505z" fill="#405144" /><path d="M589.130323 445.274839a9.35914 9.35914 0 1 0-18.71828 0c0.550538 27.636989 16.185806 37.987097 42.611613 37.987096h22.902366a9.35914 9.35914 0 0 0 0-18.718279h-22.682151c-17.507097 0.44043-24.113548-3.963871-24.113548-19.268817z" fill="#4A3A3F" /><path d="M420.665806 445.274839a9.35914 9.35914 0 0 1 18.71828 0c0 27.636989-16.185806 38.427527-42.611613 38.427527H373.870108a9.35914 9.35914 0 0 1 0-18.71828h22.68215c17.507097 0 24.113548-4.404301 24.113548-19.709247z" fill="#4A3A3F" /></svg>