<?xml version="1.0" standalone="no"?><!DOCTYPE svg PUBLIC "-//W3C//DTD SVG 1.1//EN" "http://www.w3.org/Graphics/SVG/1.1/DTD/svg11.dtd"><svg class="icon" width="200px" height="200.00px" viewBox="0 0 1024 1024" version="1.1" xmlns="http://www.w3.org/2000/svg"><path d="M681.693205 197.387884c38.571204-17.926042 52.06609-70.495673 30.212432-117.828482s-70.495673-70.495673-109.570417-52.771046-52.06609 70.495673-30.212432 117.828481 70.999213 70.797797 109.570417 52.771047z m7.250984 15.509048c-47.937057 22.357199-106.649882-5.941778-132.330449-61.029111s-10.07081-118.332022 38.26908-140.991346 106.649882 5.941778 132.330448 61.029111 9.667978 118.734854-38.269079 140.991346z" fill="#465341" /><path d="M572.086805 144.628602a94.162077 77.041699 65 1 0 139.646985-65.118458 94.162077 77.041699 65 1 0-139.646985 65.118458Z" fill="#92D382" /><path d="M677.664881 441.90716c69.085759 16.214005 139.782848-34.341463 158.111723-112.59166s-23.263572-154.788356-92.349331-171.203777-140.084972 35.147128-158.111723 113.397325 23.263572 154.788356 92.349331 170.398112z m-3.826908 16.717545c-78.854445-18.228167-125.381589-104.132179-105.239968-191.345397s99.600315-143.91188 178.354052-125.784422 125.381589 104.132179 105.239968 191.345397-99.600315 144.214005-178.354052 126.086546z" fill="#465341" /><path d="M677.634825 442.232188a128.402832 145.52321 13 1 0 65.471199-283.586919 128.402832 145.52321 13 1 0-65.471199 283.586919Z" fill="#CFE297" /><path d="M770.316337 257.61133m-17.120378 0a17.120378 17.120378 0 1 0 34.240755 0 17.120378 17.120378 0 1 0-34.240755 0Z" fill="#465341" /><path d="M736.075581 343.213218m-17.120377 0a17.120378 17.120378 0 1 0 34.240755 0 17.120378 17.120378 0 1 0-34.240755 0Z" fill="#465341" /><path d="M701.834826 240.490952m-17.120378 0a17.120378 17.120378 0 1 0 34.240756 0 17.120378 17.120378 0 1 0-34.240756 0Z" fill="#465341" /><path d="M633.353315 86.407553m-17.120377 0a17.120378 17.120378 0 1 0 34.240755 0 17.120378 17.120378 0 1 0-34.240755 0Z" fill="#465341" /><path d="M513.510672 745.038552c118.936271-31.823761 184.396538-172.210858 146.530291-313.907159S495.081089 200.20771 376.346234 232.434304 192.151113 404.745869 230.01736 546.341463 394.977234 776.862313 513.510672 745.038552z m4.431156 16.516129c-128.604249 34.54288-264.358773-60.424862-304.642014-210.782061s30.212431-300.412274 158.413848-334.854445 264.358773 60.424862 304.642014 210.782061-29.608183 300.412274-158.212431 334.854445z" fill="#465341" /><path d="M230.032965 546.312596a265.365854 222.56491 75 1 0 429.962389-115.208074 265.365854 222.56491 75 1 0-429.962389 115.208074Z" fill="#92D382" /><path d="M410.788406 291.852085m-17.120378 0a17.120378 17.120378 0 1 0 34.240756 0 17.120378 17.120378 0 1 0-34.240756 0Z" fill="#465341" /><path d="M325.186518 445.935484m-17.120378 0a17.120378 17.120378 0 1 0 34.240755 0 17.120378 17.120378 0 1 0-34.240755 0Z" fill="#465341" /><path d="M462.149539 531.537372m-17.120378 0a17.120378 17.120378 0 1 0 34.240756 0 17.120378 17.120378 0 1 0-34.240756 0Z" fill="#465341" /><path d="M564.871805 548.65775m-17.120378 0a17.120378 17.120378 0 1 0 34.240756 0 17.120378 17.120378 0 1 0-34.240756 0Z" fill="#465341" /><path d="M462.149539 394.574351m-17.120378 0a17.120378 17.120378 0 1 0 34.240756 0 17.120378 17.120378 0 1 0-34.240756 0Z" fill="#465341" /><path d="M530.63105 326.09284m-17.120378 0a17.120378 17.120378 0 1 0 34.240755 0 17.120378 17.120378 0 1 0-34.240755 0Z" fill="#465341" /><path d="M204.336793 698.712825l20.947286 225.888276a90.637293 90.637293 0 0 0 90.637293 82.278521h290.845004a90.637293 90.637293 0 0 0 90.637294-82.278521l20.544453-225.888276z m-18.731707-17.120378h551.074744l-22.558615 244.619984a107.757671 107.757671 0 0 1-107.354839 97.787569H315.51854a107.757671 107.757671 0 0 1-107.354839-97.787569z" fill="#534341" /><path d="M204.336793 698.712825h513.61133l-20.947286 225.888276a90.637293 90.637293 0 0 1-90.637293 82.278521H315.51854a90.637293 90.637293 0 0 1-90.637294-82.278521z" fill="#F5B397" /><path d="M184.195172 618.146341a30.212431 30.212431 0 0 0-30.212431 30.212432v40.283241a30.212431 30.212431 0 0 0 30.212431 30.212431h543.823761a30.212431 30.212431 0 0 0 30.212431-30.212431v-40.283241a30.212431 30.212431 0 0 0-30.212431-30.212432z m0-17.120377h543.823761a47.232101 47.232101 0 0 1 47.332809 47.332809v40.283241a47.232101 47.232101 0 0 1-47.332809 47.332809h-543.823761a47.232101 47.232101 0 0 1-47.332809-47.332809v-40.283241a47.232101 47.232101 0 0 1 47.332809-47.332809z" fill="#534341" /><path d="M153.982741 618.146341l604.248623 0 0 100.708104-604.248623 0 0-100.708104Z" fill="#F5B397" /></svg>