<?xml version="1.0" standalone="no"?><!DOCTYPE svg PUBLIC "-//W3C//DTD SVG 1.1//EN" "http://www.w3.org/Graphics/SVG/1.1/DTD/svg11.dtd"><svg class="icon" width="200px" height="200.00px" viewBox="0 0 1024 1024" version="1.1" xmlns="http://www.w3.org/2000/svg"><path d="M486.798958 66.417649v-3.626902a52.046049 52.046049 0 0 0-102.800014 16.32106l0.566704 3.513562C168.878299 149.2697 100.87388 399.185939 137.482926 632.441096c34.002209 217.387459 210.020314 309.760128 365.637092 313.16035a69.387175 69.387175 0 1 0 137.142245-21.194711c146.776204-51.796699 285.278538-193.925935 250.822965-411.313394C854.136161 279.838184 711.893584 63.24411 486.798958 66.417649zM910.126466 510.033142c31.622055 199.70631-77.185016 360.536761-249.349536 426.954411a88.632426 88.632426 0 0 1-172.391203 27.315108c-184.745338-9.860641-337.868622-129.095055-369.490676-328.688025-42.049399-262.610398 46.243005-495.298851 244.702568-566.136788A71.291299 71.291299 0 0 1 502.099952 47.603093c210.813699 6.007057 366.430477 200.159673 408.026514 462.430049z" fill="#474639" /><path d="M486.798958 66.417649c225.094627-3.513562 367.337203 213.080513 404.28627 446.33567 34.002209 217.387459-104.046761 359.516695-250.936306 410.74669a69.387175 69.387175 0 1 1-136.915563 22.66814v-0.566703c-155.616779-3.400221-331.18152-95.77289-365.637093-313.16035C100.87388 399.185939 168.878299 149.2697 384.225626 82.965391l-0.566704-3.513562a52.023381 52.023381 0 0 1 102.573332-16.32106z" fill="#FEF4A3" /><path d="M266.691322 486.458277a92.712691 92.712691 0 1 1 76.958334-105.973553 92.59935 92.59935 0 0 1-76.958334 105.973553z m442.028723-70.044552a92.59935 92.59935 0 1 1 77.071675-105.973552 92.59935 92.59935 0 0 1-77.071675 105.973552z" fill="#FFC090" /><path d="M411.880756 275.87126a18.587875 18.587875 0 0 1 21.194711 15.414335l2.946858 18.247852a18.587875 18.587875 0 1 1-36.609046 5.780376l-2.946858-18.247853a18.587875 18.587875 0 0 1 15.414335-21.19471z m109.827137-16.774424a18.361193 18.361193 0 0 1 21.19471 14.734291l2.833518 18.361193a18.361193 18.361193 0 0 1-15.300994 21.194711 18.701215 18.701215 0 0 1-21.534733-15.414335l-2.833518-18.247853a18.474534 18.474534 0 0 1 15.641017-20.628007z" fill="#474639" /><path d="M372.098171 461.863345a38.535837 38.535837 0 0 1 53.156788-55.423601 53.043447 53.043447 0 0 0 26.181701 13.600884 105.860212 105.860212 0 0 0 42.389421-0.906726 122.974658 122.974658 0 0 0 38.762519-11.33407 44.429554 44.429554 0 0 0 21.648073-20.287985 38.535837 38.535837 0 1 1 69.70453 32.755462 119.914459 119.914459 0 0 1-56.67035 56.670349 189.165625 189.165625 0 0 1-61.430658 18.134512 173.63795 173.63795 0 0 1-70.497914 0 129.548418 129.548418 0 0 1-63.24411-33.208825z" fill="#474639" /></svg>