<?xml version="1.0" standalone="no"?><!DOCTYPE svg PUBLIC "-//W3C//DTD SVG 1.1//EN" "http://www.w3.org/Graphics/SVG/1.1/DTD/svg11.dtd"><svg class="icon" width="200px" height="200.00px" viewBox="0 0 1024 1024" version="1.1" xmlns="http://www.w3.org/2000/svg"><path d="M623.388535 47.184713h17.324841c0 9.273885-0.611465 20.89172-1.834395 37.605096-0.713376 8.866242-3.66879 44.025478-4.178344 50.140127-9.681529 119.33758-8.968153 207.388535 10.191083 298.802548a545.22293 545.22293 0 0 0 47.184713 139.210191l-15.490446 7.847134a571.719745 571.719745 0 0 1-48.713376-143.592357c-18.955414-93.350318-19.770701-182.828025-10.191082-303.694267 0-6.11465 3.464968-41.273885 4.178344-50.038217 0.917197-16.305732 1.528662-27.515924 1.528662-36.280255z" fill="#404539" /><path d="M618.292994 63.388535l11.821656 12.738854C508.127389 189.248408 429.55414 363.312102 430.471338 566.929936h-17.324841c-0.917197-208.509554 79.796178-387.159236 205.146497-503.541401z" fill="#404539" /><path d="M673.732484 946.751592A199.949045 199.949045 0 1 0 471.235669 746.802548 201.070064 201.070064 0 0 0 673.732484 946.751592z m0 17.324841A217.273885 217.273885 0 1 1 893.146497 746.802548 218.394904 218.394904 0 0 1 673.732484 964.076433z" fill="#4F4040" /><path d="M471.643312 746.802548a202.089172 199.949045 0 1 0 404.178344 0 202.089172 199.949045 0 1 0-404.178344 0Z" fill="#FF7881" /><path d="M370.547771 1006.675159c122.802548 0 222.267516-102.929936 222.267516-229.910828s-99.464968-229.910828-222.267516-229.910828S148.178344 649.783439 148.178344 776.764331s99.566879 229.910828 222.369427 229.910828z m0 17.324841C238.063694 1024 130.853503 913.22293 130.853503 776.764331s107.210191-247.235669 239.694268-247.235669 239.592357 110.878981 239.592356 247.235669-107.10828 247.235669-239.592356 247.235669z" fill="#4F4040" /><path d="M148.178344 776.764331a229.910828 222.369427 90 1 0 444.738853 0 229.910828 222.369427 90 1 0-444.738853 0Z" fill="#FF8F8F" /><path d="M370.547771 866.751592q60.535032-50.955414 60.636942-89.987261c0-38.624204-27.210191-69.910828-60.636942-69.910828s-60.636943 31.286624-60.636943 69.910828q0 38.726115 60.636943 89.987261z m11.10828 13.248408l-11.10828 9.477707-11.414013-9.477707c-43.923567-37.197452-66.751592-71.33758-66.751592-103.235669 0-47.694268 34.242038-87.235669 77.961783-87.235669s77.961783 39.541401 77.961783 87.235669c0.203822 32.203822-22.624204 66.038217-66.649681 103.235669z" fill="#4F4040" /><path d="M370.547771 866.751592q60.535032-50.955414 60.636942-89.987261c0-38.624204-27.210191-69.910828-60.636942-69.910828s-60.636943 31.286624-60.636943 69.910828q0 38.726115 60.636943 89.987261z" fill="#FFD1AA" /><path d="M613.197452 17.324841a10.191083 10.191083 0 0 0-10.191083 10.191083v40.764331a10.191083 10.191083 0 0 0 10.191083 10.191083h20.382166a10.191083 10.191083 0 0 0 10.191083-10.191083v-40.764331a10.191083 10.191083 0 0 0-10.191083-10.191083z m0-17.324841h20.382166a27.515924 27.515924 0 0 1 27.515923 27.515924v40.764331a27.515924 27.515924 0 0 1-27.515923 27.515923h-20.382166a27.515924 27.515924 0 0 1-27.515923-27.515923v-40.764331a27.515924 27.515924 0 0 1 27.515923-27.515924z" fill="#404539" /><path d="M603.006369 17.324841l40.764332 0 0 61.146497-40.764332 0 0-61.146497Z" fill="#FFD8A2" /><path d="M601.070064 54.318471a10.191083 10.191083 0 0 1-5.503185 13.146497l-18.343949 7.33758a10.191083 10.191083 0 0 1-13.146497-5.503185 10.191083 10.191083 0 0 1 5.503185-13.146497l18.343949-7.43949a10.191083 10.191083 0 0 1 13.146497 5.605095z" fill="#404539" /><path d="M183.133758 219.006369q117.095541 50.955414 219.414013 9.477707T553.88535 69.299363q-117.095541-50.955414-219.414012-9.477707T183.133758 219.006369z m-6.929936 15.89809l-15.592357-6.726115 6.522293-15.796178C201.477707 129.732484 255.184713 73.171975 327.949045 43.617834s150.624204-25.88535 232.764331 10.191083l15.694267 6.726115-6.522293 15.796178C535.541401 158.573248 481.426752 215.133758 409.070064 244.585987s-150.726115 25.987261-232.866242-9.681528z" fill="#404539" /><path d="M183.133758 219.006369q117.095541 50.955414 219.414013 9.477707T553.88535 69.299363q-117.095541-50.955414-219.414012-9.477707T183.133758 219.006369z" fill="#C9EC97" /></svg>