<?xml version="1.0" standalone="no"?><!DOCTYPE svg PUBLIC "-//W3C//DTD SVG 1.1//EN" "http://www.w3.org/Graphics/SVG/1.1/DTD/svg11.dtd"><svg class="icon" width="200px" height="200.00px" viewBox="0 0 1024 1024" version="1.1" xmlns="http://www.w3.org/2000/svg"><path d="M512 1004.307692A492.307692 492.307692 0 1 0 19.692308 512a492.307692 492.307692 0 0 0 492.307692 492.307692z m0 19.692308a512 512 0 1 1 512-512 512 512 0 0 1-512 512z" fill="#52404A" /><path d="M512 512m-492.307692 0a492.307692 492.307692 0 1 0 984.615384 0 492.307692 492.307692 0 1 0-984.615384 0Z" fill="#F190C3" /><path d="M512 512m-433.230769 0a433.230769 433.230769 0 1 0 866.461538 0 433.230769 433.230769 0 1 0-866.461538 0Z" fill="#FFF3FA" /><path d="M485.704977 236.307692h11.583711a11.58371 11.58371 0 0 1 11.58371 11.583711v30.233484a11.58371 11.58371 0 0 1-11.58371 11.58371h-11.583711a11.58371 11.58371 0 0 1-11.58371-11.58371V247.891403a11.58371 11.58371 0 0 1 11.58371-11.583711z m-210.591855 139.004525l11.583711 2.548416a11.58371 11.58371 0 0 1 8.919457 13.668779l-6.371041 29.538461a11.58371 11.58371 0 0 1-13.668778 8.919457l-11.583711-2.432579a11.58371 11.58371 0 0 1-8.919457-14.016289l6.255204-29.538462a11.58371 11.58371 0 0 1 13.784615-8.919457z m462.537557-77.61086l11.58371-1.621719a11.58371 11.58371 0 0 1 13.089593 9.846154l4.517647 29.306787a11.58371 11.58371 0 0 1-9.846154 13.089593l-11.58371 1.737557a11.58371 11.58371 0 0 1-13.321267-9.961991l-4.170136-29.885973a11.58371 11.58371 0 0 1 9.730317-12.510408zM485.241629 734.40724h11.58371a11.58371 11.58371 0 0 1 11.583711 11.58371V776.108597a11.58371 11.58371 0 0 1-11.583711 11.583711h-11.58371a11.58371 11.58371 0 0 1-11.58371-11.583711v-30.233484a11.58371 11.58371 0 0 1 11.58371-11.467873z m187.540271-55.60181l11.004525-4.517647a11.58371 11.58371 0 0 1 15.174661 6.371041l11.58371 28.032579a11.58371 11.58371 0 0 1-6.37104 15.058823l-11.583711 4.517647a11.58371 11.58371 0 0 1-15.058823-6.486878l-11.583711-27.916742a11.58371 11.58371 0 0 1 6.834389-15.058823z m137.61448-199.239819l11.58371-4.517647a11.58371 11.58371 0 0 1 15.058824 6.371041l11.58371 28.032579a11.58371 11.58371 0 0 1-6.37104 15.058823l-11.583711 4.517647a11.58371 11.58371 0 0 1-15.17466-6.37104l-11.583711-28.03258a11.58371 11.58371 0 0 1 6.486878-15.058823z m-294.921267 0l11.583711-4.517647a11.58371 11.58371 0 0 1 15.17466 6.371041l11.583711 28.032579a11.58371 11.58371 0 0 1-6.371041 15.058823l-12.278733 4.865159a11.58371 11.58371 0 0 1-15.058824-6.371041l-11.58371-28.032579a11.58371 11.58371 0 0 1 6.950226-15.406335z m-220.090498 134.602715l11.583711 2.432579a11.58371 11.58371 0 0 1 8.108597 13.784615l-6.255204 29.538462a11.58371 11.58371 0 0 1-13.437104 8.456108l-11.58371-2.548416a11.58371 11.58371 0 0 1-8.919457-13.668778l6.255204-29.538462a11.58371 11.58371 0 0 1 13.668778-8.456108z" fill="#52404A" /></svg>