<?xml version="1.0" standalone="no"?><!DOCTYPE svg PUBLIC "-//W3C//DTD SVG 1.1//EN" "http://www.w3.org/Graphics/SVG/1.1/DTD/svg11.dtd"><svg class="icon" width="200px" height="200.00px" viewBox="0 0 1024 1024" version="1.1" xmlns="http://www.w3.org/2000/svg"><path d="M487.419816 986.65904a28.136466 28.136466 0 0 0 24.580184 19.55955 28.241062 28.241062 0 0 0 24.580184-19.454954c199.67477-12.65618 357.720123-180.638202 357.720122-474.763636S736.254954 50.206333 536.580184 37.236364a28.136466 28.136466 0 0 0-24.580184-19.454954 28.031869 28.031869 0 0 0-24.580184 19.454954C287.745046 50.206333 129.699694 226.346885 129.699694 512s158.045352 461.375281 357.720122 474.65904zM111.918284 512C111.918284 233.564045 262.537283 39.74668 476.437181 20.291726a41.838611 41.838611 0 0 1 71.125638 0C764.600613 39.74668 912.081716 228.020429 912.081716 512S764.600613 984.671706 547.562819 1003.708274a41.315628 41.315628 0 0 1-71.125638 0C262.537283 983.93953 111.918284 790.331359 111.918284 512z" fill="#5A5245" /><path d="M487.419816 986.65904C287.745046 973.375281 129.699694 797.548519 129.699694 512S287.745046 50.206333 487.419816 37.236364a28.031869 28.031869 0 0 1 24.580184-19.454954 28.136466 28.136466 0 0 1 24.580184 19.454954C736.254954 50.206333 894.300306 217.560776 894.300306 512S736.254954 974.107457 536.580184 986.763636a28.241062 28.241062 0 0 1-24.580184 19.454954 28.136466 28.136466 0 0 1-24.580184-19.55955z" fill="#E5C99A" /><path d="M271.637181 558.545455a102.609193 102.609193 0 1 1 0-205.11379 102.609193 102.609193 0 1 1 0 205.11379z m499.34382 0a102.609193 102.609193 0 1 1 104.596527-102.504597 103.655158 103.655158 0 0 1-104.596527 102.504597z" fill="#FFC3C7" /><path d="M401.232278 353.536261h15.794075a10.459653 10.459653 0 0 1 10.459653 10.459653v35.039837a10.459653 10.459653 0 0 1-10.459653 10.459652h-15.794075a10.459653 10.459653 0 0 1-10.459653-10.459652V363.995914a10.459653 10.459653 0 0 1 10.459653-10.459653z m224.464147 0h15.689479a10.459653 10.459653 0 0 1 10.459653 10.459653v35.039837a10.459653 10.459653 0 0 1-10.459653 10.459652h-15.689479a10.459653 10.459653 0 0 1-10.459653-10.459652V363.995914a10.459653 10.459653 0 0 1 10.459653-10.459653z" fill="#443939" /><path d="M477.273953 463.048825a8.890705 8.890705 0 1 1 17.15383 4.602248c-5.020633 18.095199 1.673544 26.149132 27.090501 26.149131s31.378958-7.949336 27.0905-26.462921a8.890705 8.890705 0 1 1 17.258427-3.974668c6.798774 29.705414-7.949336 48.218999-44.348927 48.218999s-52.40286-18.931971-44.244331-48.532789z" fill="#443939" /></svg>