<?xml version="1.0" standalone="no"?><!DOCTYPE svg PUBLIC "-//W3C//DTD SVG 1.1//EN" "http://www.w3.org/Graphics/SVG/1.1/DTD/svg11.dtd"><svg class="icon" width="200px" height="200.00px" viewBox="0 0 1024 1024" version="1.1" xmlns="http://www.w3.org/2000/svg"><path d="M424.984954 155.477008q-23.326976-62.928587 3.58042-105.893622T522.198771 0c15.406654 42.097054 14.213181 77.250265-3.688917 105.785124s-49.040898 44.809494-93.5249 49.691884z" fill="#E1E5A5" /><path d="M444.189023 59.348167c12.694215-20.289044 34.068235-33.417249 65.098538-39.059123 8.571307 30.487815 6.184361 55.442255-6.509854 75.948294s-33.959737 33.417249-65.098538 39.059123c-8.571307-30.70481-6.509854-55.550752 6.509854-75.948294z m-19.204069 96.128841q66.726001-6.726849 93.5249-49.691884c17.902098-28.534859 19.095571-63.68807 3.688917-105.785124q-66.834499 6.726849-93.633397 49.583386t-3.58042 105.893622z" fill="#525341" /><path d="M398.620047 285.674083q-67.051494-3.254927-96.128841-44.700995t-9.113796-105.568129q67.051494 3.254927 96.128841 44.700996t9.113796 105.568128z" fill="#E1E5A5" /><path d="M318.114855 230.340326c-13.779191-19.638059-17.468108-44.375503-10.849756-75.297308 31.464293 4.01441 53.489299 15.949142 67.159991 35.5872s17.468108 44.375503 10.849756 75.297309c-31.464293-4.01441-53.489299-15.949142-67.159991-35.587201z m80.505192 55.333757q19.855054-64.12206-9.113796-105.568128t-95.69485-44.700996q-19.855054 64.12206 9.113795 105.568129t95.694851 44.700995z" fill="#525341" /><path d="M463.718584 516.773893q-49.583386 45.243484-99.492265 36.346683t-81.156177-68.136469q49.691884-45.134986 99.492265-36.346684t81.156177 68.13647z" fill="#E1E5A5" /><path d="M367.806739 535.001483c-23.543971-4.231405-43.399025-19.095571-60.650138-45.894469 25.062937-19.312566 49.040898-26.473405 72.693367-22.350498s43.399025 19.095571 60.650138 45.894469c-25.062937 19.421064-49.040898 26.473405-72.693367 22.350498z m95.911845-18.22759q-31.247298-59.239669-81.156177-68.13647t-99.492265 36.346684q31.247298 59.456665 81.156177 68.136469t99.492265-36.346683z" fill="#525341" /><path d="M500.065268 560.389913a102.85569 102.85569 0 0 0 68.57046-36.238186q31.898284-39.16762 16.491629-104.591651-67.051494-1.410468-98.949777 37.86565a102.096207 102.096207 0 0 0-21.699513 71.391396c0.867981 10.415766 26.147913 32.983259 35.587201 31.572791z" fill="#E1E5A5" /><path d="M497.678322 542.162323h2.495444l1.193473 0.542487a10.198771 10.198771 0 0 0-3.363425 0z m56.635728-29.619835c15.081161-18.553083 20.506039-43.399025 15.623649-74.320831-31.572791 1.844459-54.248782 12.151727-69.438441 30.813308a83.109133 83.109133 0 0 0-17.35961 57.069718 7.920322 7.920322 0 0 1 0.976478 1.410469 58.046196 58.046196 0 0 0 7.269337 7.811824 47.955923 47.955923 0 0 0 8.245815 6.075864 83.434626 83.434626 0 0 0 54.682772-28.860352z m-71.499894 12.91121z m17.251112 34.936215c-9.439288 1.410468-34.71922-21.699513-35.261708-31.572791a102.096207 102.096207 0 0 1 21.699513-71.391396q31.898284-39.384615 98.949777-37.86565 15.298156 65.098538-16.491629 104.591651a102.85569 102.85569 0 0 1-68.895953 36.238186z" fill="#525341" /><path d="M384.081373 282.202161q27.992371-60.867133 77.358763-72.367874t101.336724 31.138801c-18.770078 40.578089-44.809494 64.664548-77.358763 72.367874s-66.726001-2.820937-101.336724-31.138801z" fill="#E1E5A5" /><path d="M465.671541 227.844882c23.326976-5.424878 47.63043 0 73.669845 18.553084-15.515152 27.558381-34.827718 43.399025-58.154694 48.932401s-47.63043 0-73.669845-18.553084c15.406654-27.666879 34.502225-43.507523 58.154694-48.932401z m-81.590168 54.248782q51.970333 42.097054 101.336724 31.247298c32.549269-7.594829 58.697182-31.681288 77.46726-72.259377q-51.970333-42.422547-101.336724-31.138801t-77.46726 72.259377z" fill="#525341" /><path d="M589.90125 606.284382l4.01441-17.685102c-129.1121-29.83683-188.568765-126.942149-179.780462-293.702904 3.146429-58.154694 13.887688-107.521085 34.176732-144.410256l-16.166136-8.8968c-21.699513 39.818606-33.200254 91.680441-36.346684 151.896588-9.33079 175.549057 55.333757 281.008688 194.10214 312.798474z" fill="#525341" /><path d="M911.596525 643.173554q52.729816-15.406654 68.461962-54.248782t-10.849756-86.79805q-52.729816 15.515152-68.461963 54.248781t10.849757 86.798051z" fill="#E1E5A5" /><path d="M962.807374 581.872431a71.391396 71.391396 0 0 0-3.471922-57.069719 66.400509 66.400509 0 0 0-38.625132 95.694851 71.174401 71.174401 0 0 0 42.097054-38.625132z m-51.210849 61.301123q-27.124391-47.738928-10.849757-86.798051t68.461963-54.248781q27.124391 47.738928 10.849756 86.79805t-68.461962 54.248782z" fill="#525341" /><path d="M855.394787 730.731087q34.827718 42.422547 76.816275 41.771562t75.297308-44.375503c-23.218478-28.317864-48.823903-42.31405-76.816274-41.771562s-53.163806 15.298156-75.297309 44.375503z" fill="#E1E5A5" /><path d="M931.885569 754.058063a71.282899 71.282899 0 0 0 51.102352-25.605425 66.292011 66.292011 0 0 0-103.072685 1.844459 71.391396 71.391396 0 0 0 51.970333 23.760966z m-76.490782-23.326976c21.699513-29.077347 47.304937-43.399025 75.297309-44.375503s53.597796 13.453698 76.816274 41.771562q-33.417249 43.399025-75.297308 44.375503t-76.816275-41.771562z" fill="#525341" /><path d="M835.865226 766.101293q24.737444-49.040898 6.943844-86.798051t-71.174402-51.319347c-16.49163 32.549269-18.770078 61.735113-6.943844 86.79805s35.370206 43.399025 71.174402 51.319348z" fill="#E1E5A5" /><path d="M826.100445 686.789574a70.957406 70.957406 0 0 0-44.158508-36.346684 66.292011 66.292011 0 0 0 43.399025 93.416402 71.391396 71.391396 0 0 0 0.759483-57.069718z m9.764781 79.311719c-35.804196-7.920322-59.239669-25.38843-71.174402-50.77686s-9.547786-54.248782 6.943844-86.79805q53.380801 12.694215 71.174402 50.776859t-6.943844 86.798051z" fill="#525341" /><path d="M743.5338 795.721127l-1.301971-18.336088c87.666031-6.184361 142.240305-56.635728 165.458783-153.090061l17.902098 4.339902c-24.954439 103.940665-86.038567 160.359398-182.05891 167.086247z" fill="#525341" /><path d="M622.667514 591.094723l-3.254927-18.119093A227.844882 227.844882 0 0 0 807.221869 310.30303a222.203009 222.203009 0 0 0-62.386099-119.347319l13.019708-13.128205a239.996609 239.996609 0 0 1 67.485484 129.1121 246.723458 246.723458 0 0 1-202.673448 284.155117z" fill="#525341" /><path d="M758.723458 198.984531q21.699513-58.263191-3.037931-97.647807t-86.798051-45.677474q-21.699513 58.263191 3.037932 97.647807t86.79805 45.677474z" fill="#E1E5A5" /><path d="M739.95338 110.884509a81.48167 81.48167 0 0 0-58.263191-35.044712 81.698665 81.698665 0 0 0 6.075863 67.702479 81.590167 81.590167 0 0 0 58.046196 35.15321 81.91566 81.91566 0 0 0-5.858868-67.810977z m18.770078 88.100022q-61.843611-5.967366-86.79805-45.677474t-3.037932-97.647807q61.843611 5.967366 86.798051 45.677474t3.037931 97.647807z" fill="#525341" /><path d="M803.749947 289.905488q61.409621-9.113795 84.085611-50.125874t-2.061453-97.647806q-61.409621 9.33079-84.085612 50.125874t2.061454 97.647806z" fill="#E1E5A5" /><path d="M871.777919 230.774317a81.807163 81.807163 0 0 0 2.386946-67.919475 81.590167 81.590167 0 0 0-56.310235 38.082645 81.698665 81.698665 0 0 0-2.495444 67.919474 81.48167 81.48167 0 0 0 56.418733-38.082644z m-68.027972 59.131171q-24.737444-56.961221-2.061454-97.647806t84.085612-50.125874q24.737444 57.069718 2.061453 97.647806t-84.085611 50.125874z" fill="#525341" /><path d="M748.633185 526.213181q45.894469 41.988557 91.897436 33.851239t74.863318-63.254079q-45.894469-42.422547-92.005933-33.851239t-74.754821 63.254079z" fill="#E1E5A5" /><path d="M837.384192 541.83683a81.373172 81.373172 0 0 0 54.248781-40.795084 74.971816 74.971816 0 0 0-119.347319 21.048527 81.48167 81.48167 0 0 0 65.098538 19.746557z m-88.751007-15.623649q28.751854-55.22526 74.754821-63.254079t92.005933 33.851239q-28.534859 55.22526-74.863318 63.254079t-91.897436-33.851239z" fill="#525341" /><path d="M713.262979 552.035601a94.935368 94.935368 0 0 1-63.471074-33.41725q-29.511337-36.346684-15.081161-96.779826 62.169104-1.518966 91.571943 34.827718a93.741894 93.741894 0 0 1 19.529561 65.858021c0 9.656283-23.869464 30.596313-32.549269 29.511337z" fill="#E1E5A5" /><path d="M715.541428 533.591015h-2.820936l-1.193474 0.650985a8.46281 8.46281 0 0 1 3.58042 0z m-51.536342-26.6904a81.264675 81.264675 0 0 1-14.104683-66.400509 81.590167 81.590167 0 0 1 62.060606 27.666879 74.971816 74.971816 0 0 1 15.515151 51.319347 3.58042 3.58042 0 0 1-0.650985 0.86798 41.988557 41.988557 0 0 1-6.509854 7.052342 41.012079 41.012079 0 0 1-7.486332 5.533376 74.754821 74.754821 0 0 1-48.823903-26.039415z m63.905064 11.934731z m-14.647171 33.200255c8.788303 1.193473 32.549269-19.746556 32.549269-29.40284a93.741894 93.741894 0 0 0-19.529561-65.966518q-29.40284-36.455181-91.571943-34.827718-14.538673 60.54164 14.972664 96.779826a94.935368 94.935368 0 0 0 63.579571 33.41725z" fill="#525341" /><path d="M810.910786 301.080737q-25.930918-56.635728-71.391396-67.051494t-93.5249 28.96885q25.930918 56.418733 71.391397 67.051494t93.524899-28.96885z" fill="#E1E5A5" /><path d="M735.721975 251.931341a81.698665 81.698665 0 0 0-65.858021 16.383132 74.971816 74.971816 0 0 0 118.045349 27.341386 81.590167 81.590167 0 0 0-52.187328-43.724518z m75.948294 49.149396q-48.06442 39.384615-93.524899 28.96885t-71.391397-67.051494q48.06442-39.493113 93.5249-28.96885t70.631913 67.051494z" fill="#525341" /><path d="M159.925408 509.830049q-53.706294 23.652469-93.307904 2.495444C40.578089 497.786819 23.652469 472.072897 16.600127 433.556262q53.706294-23.435474 93.307904-2.495444t50.017377 78.769231z" fill="#E1E5A5" /><path d="M75.405806 496.050858a77.90125 77.90125 0 0 1-37.214664-50.993854 77.792753 77.792753 0 0 1 63.037084 2.386946 77.575758 77.575758 0 0 1 36.997669 50.885357 77.358762 77.358762 0 0 1-62.820089-2.278449z m84.519602 13.779191q-10.849756-57.612206-50.125874-78.769231t-93.307904 2.495444c7.052342 38.516635 23.760966 65.098538 50.125874 78.769231s57.612206 13.236703 93.307904-2.495444z" fill="#525341" /><path d="M227.085399 633.625768q-38.73363 44.050011-83.543123 41.663064t-78.660733-50.125874q38.73363-44.158508 83.434626-41.663064c29.945327 1.084976 56.09324 18.227591 78.76923 50.125874z" fill="#E1E5A5" /><path d="M144.518754 656.952744a78.443738 78.443738 0 0 1-55.333757-30.487815 77.684255 77.684255 0 0 1 58.263191-24.520449 77.684255 77.684255 0 0 1 55.22526 30.379317 77.90125 77.90125 0 0 1-58.154694 24.628947z m82.566645-23.326976c-22.675991-31.898284-48.823903-48.606908-78.76923-50.125874s-57.612206 11.934732-83.434626 41.663064q33.85124 47.847425 78.660733 50.125874t83.543123-41.663064z" fill="#525341" /><path d="M205.277389 641.871583q-24.411952-53.272303-4.122907-93.199407c13.562195-26.690401 39.601611-43.399025 77.90125-51.536342q24.411952 53.272303 4.122908 93.199407t-77.901251 51.536342z" fill="#E1E5A5" /><path d="M217.646111 557.026489a78.009748 78.009748 0 0 1 50.77686-38.191143 78.009748 78.009748 0 0 1-1.301971 63.145582 77.575758 77.575758 0 0 1-50.342869 38.082645 77.792753 77.792753 0 0 1 0.86798-63.037084z m-12.368722 84.845094q57.503708-11.500742 77.901251-51.536342t-3.905913-93.199407c-38.29964 7.703327-64.339055 24.845942-77.90125 51.536342s-12.368722 57.612206 3.905912 93.199407z" fill="#525341" /><path d="M339.922865 696.77135l1.952956-18.336088c-110.667514-11.609239-169.907184-87.557533-179.454969-230.340327 0-4.88239-0.542488-9.33079-0.976478-14.321678 0-1.084976-0.542488-8.571307-0.650986-10.849756-0.542488-6.618351-0.759483-10.849756-0.86798-14.213181 0-7.269337 0-12.260225 0.86798-37.648654l-18.444585-0.759483c-0.976478 25.930918-1.084976 31.138801-0.867981 38.950625 0 4.122907 0 8.02882 0.867981 14.972663 0 1.952956 0.650985 9.547786 0.759483 10.849757 0 4.88239 0.650985 9.33079 0.976478 14.213181 9.981776 151.028608 75.405806 234.897224 195.838101 247.482941z" fill="#525341" /><path d="M141.480822 399.271032q-38.29964-44.484001-29.619835-88.534011t60.541641-70.957407q38.29964 44.592498 29.728332 88.534012t-60.650138 70.957406z" fill="#E1E5A5" /><path d="M129.871583 314.31744a78.443738 78.443738 0 0 1 37.865649-50.559864 78.009748 78.009748 0 0 1 16.274635 61.084128 78.443738 78.443738 0 0 1-37.86565 50.451367 77.792753 77.792753 0 0 1-16.274634-60.975631z m11.609239 84.953592q52.07883-26.798898 60.650138-70.957406t-29.728332-88.534012q-52.07883 27.015893-60.541641 70.957407t29.619835 88.534011z" fill="#525341" /><path d="M342.418309 675.288832a15.515152 15.515152 0 0 0-15.189659 16.274635l20.614537 285.891078a30.27082 30.27082 0 0 0 30.27082 28.100869h238.694639a30.27082 30.27082 0 0 0 29.83683-30.379317v-64.12206q0-36.997669 105.025641-92.331426v-85.387582l-105.025641 24.845942V592.830684a15.189659 15.189659 0 0 0-15.189659-15.189658h-73.01886q-77.792753 155.477008-119.998305 189.870735a285.782581 285.782581 0 0 1 0-92.222929z m199.527018-105.893621l5.099386-10.198771h84.411104a33.634245 33.634245 0 0 1 33.634244 33.634244v141.914813l105.025641-24.628947v119.347319l-9.873278 5.207883c-63.796567 33.634245-95.152363 61.301123-95.152363 75.948295v64.55605a48.715406 48.715406 0 0 1-48.715405 48.715405h-238.694639a48.823903 48.823903 0 0 1-48.715406-45.243483l-20.072049-285.565586a33.634245 33.634245 0 0 1 31.138801-35.912694h120.215299l-3.580419 21.699513a248.133927 248.133927 0 0 0-3.797415 44.809493 1123.600763 1123.600763 0 0 0 89.076499-154.283534z" fill="#534C41" /><path d="M342.418309 675.288832h96.020343a285.782581 285.782581 0 0 0 0 92.222929q42.31405-34.393727 119.998305-189.870735h73.01886a15.189659 15.189659 0 0 1 15.189659 15.189658v165.350287l105.025641-24.737445v85.387582q-105.025641 55.333757-105.025641 92.331426v64.013563a30.27082 30.27082 0 0 1-30.27082 30.27082h-238.694639a30.27082 30.27082 0 0 1-30.27082-28.100869l-20.614537-285.891079a15.189659 15.189659 0 0 1 14.104683-16.166137z" fill="#F3D399" /><path d="M424.116974 867.221021z m148.099173-92.222928z m-18.444585 129.1121z" fill="#D8D8D8" /></svg>