<?xml version="1.0" standalone="no"?><!DOCTYPE svg PUBLIC "-//W3C//DTD SVG 1.1//EN" "http://www.w3.org/Graphics/SVG/1.1/DTD/svg11.dtd"><svg class="icon" width="200px" height="200.00px" viewBox="0 0 1024 1024" version="1.1" xmlns="http://www.w3.org/2000/svg"><path d="M481.135762 39.040849C689.040522 20.507506 834.615268 162.561953 860.292749 382.580685c20.707645 177.464521-100.328542 359.6918-149.819814 449.977134s-5.383988 171.976995-89.767643 173.737144c-153.754267 3.209685-365.489941-113.892049-440.037464-369.631469-79.206743-271.477231 92.666713-578.985764 300.467934-597.622645z m-1.656611-17.290884C254.179969 41.732842 83.756048 367.257027 163.791097 641.633328c69.059997 237.102539 269.19939 386.197586 457.328348 382.263134 53.11511-1.13892 68.852921-24.227945 77.446593-84.590732 7.247676-51.044346 11.803358-69.888303 27.334092-98.257777-2.174303 3.830914 49.180658-86.143805 66.057389-118.654808 60.052172-115.134508 91.941945-215.980741 88.007493-314.031441 0-9.31844-1.13892-18.636881-2.174303-27.748245C850.663694 147.445372 693.699742 2.388316 479.479151 21.749965z" fill="#4D4D3E" /><path d="M481.135762 39.040849c-207.801221 18.636881-379.674678 326.145414-300.260857 597.622645 74.547523 255.73942 286.283197 372.737616 440.037463 369.631469 84.383655-1.76015 40.27637-83.451811 89.767643-173.737144S881.000394 560.148744 860.292749 382.580685C834.615268 162.561953 689.040522 20.507506 481.135762 39.040849z" fill="#FFF08D" /><path d="M328.106263 555.282447a83.555349 83.555349 0 1 1 83.451811-83.45181 83.451811 83.451811 0 0 1-83.451811 83.45181z m384.23036 0a83.555349 83.555349 0 1 1 83.555349-83.45181 83.451811 83.451811 0 0 1-83.555349 83.45181z" fill="#FFBA9B" /><path d="M471.610245 371.502095h12.735202a10.353823 10.353823 0 0 1 10.353823 10.353822v29.508395a10.353823 10.353823 0 0 1-10.353823 10.353823h-12.735202a10.353823 10.353823 0 0 1-10.353822-10.353823v-29.508395a10.353823 10.353823 0 0 1 10.353822-10.353822z m83.555349 0h12.735202a10.353823 10.353823 0 0 1 10.353823 10.353822v29.508395a10.353823 10.353823 0 0 1-10.353823 10.353823h-12.321049a10.353823 10.353823 0 0 1-10.353822-10.353823v-29.508395a10.353823 10.353823 0 0 1 10.353822-10.353822z" fill="#4D4D3E" /><path d="M445.000921 471.830637h150.855196q-20.707645 116.998196-75.686443 116.894658T445.000921 471.830637z" fill="#4D4D3E" /><path d="M495.216961 28.272873a25.988095 25.988095 0 0 1 10.353823-23.089025 24.952713 24.952713 0 0 1 24.952712-3.209685 24.020869 24.020869 0 0 1 14.59889 19.775802 25.988095 25.988095 0 0 1-22.467795 28.058859 24.227945 24.227945 0 0 1-27.43763-21.535951z" fill="#4D4D3E" /></svg>