<?xml version="1.0" standalone="no"?><!DOCTYPE svg PUBLIC "-//W3C//DTD SVG 1.1//EN" "http://www.w3.org/Graphics/SVG/1.1/DTD/svg11.dtd"><svg class="icon" width="200px" height="200.00px" viewBox="0 0 1024 1024" version="1.1" xmlns="http://www.w3.org/2000/svg"><path d="M512 1003.27619c108.617143 0 424.838095-223.085714 424.838095-512.975238S719.238095 132.87619 512 132.87619 87.161905 200.411429 87.161905 490.300952 403.382857 1003.27619 512 1003.27619z m0 20.72381c-64.731429 0-176.761905-63.390476-268.190476-153.721905C133.973333 760.685714 66.438095 627.809524 66.438095 490.300952c0-142.140952 50.590476-242.834286 143.969524-304.761904 77.04381-50.95619 179.687619-73.142857 301.592381-73.142858s224.548571 22.552381 301.592381 73.142858c93.379048 61.805714 143.969524 162.499048 143.969524 304.761904 0 137.508571-67.535238 270.384762-177.859048 379.977143C688.761905 960.609524 576.731429 1024 512 1024z" fill="#473C3C" /><path d="M512 1003.27619c108.617143 0 424.838095-223.085714 424.838095-512.975238S719.238095 132.87619 512 132.87619 87.161905 200.411429 87.161905 490.300952 403.382857 1003.27619 512 1003.27619z" fill="#F89393" /><path d="M505.295238 0c34.742857 0 63.634286 31.573333 69.485714 73.142857 45.83619-16.213333 92.525714-10.849524 109.714286 14.628572s0 62.537143-40.106667 88.137142c39.619048 25.6 57.417143 62.537143 40.106667 88.015239s-64.121905 30.96381-109.714286 14.750476c-6.339048 41.813333-35.230476 73.142857-69.973333 73.142857s-63.634286-31.573333-69.973333-73.142857c-45.83619 16.213333-92.525714 10.849524-109.714286-14.750476s0-62.415238 40.106667-88.015239c-39.619048-25.6-57.417143-62.537143-40.106667-88.137142s64.121905-30.841905 109.714286-14.628572c6.826667-41.569524 35.718095-73.142857 70.460952-73.142857z" fill="#83C976" /><path d="M505.295238 20.72381c-23.04 0-44.495238 22.79619-49.493333 55.83238l-3.657143 24.380953-24.380952-8.411429c-38.521905-13.653333-75.093333-8.899048-85.333334 6.826667-9.142857 13.409524 2.56 38.64381 34.133334 59.001905l27.550476 17.798095-26.940953 17.432381c-31.573333 20.358095-43.27619 45.592381-34.133333 59.001905 10.727619 15.725714 47.299048 20.48 85.333333 6.826666l24.380953-8.411428 3.657143 24.380952c4.998095 33.03619 26.453333 55.832381 49.493333 55.832381s44.495238-22.79619 49.493333-55.832381l3.657143-24.380952 24.380952 8.411428c38.521905 13.653333 75.093333 8.899048 85.333334-6.826666 9.142857-13.409524-2.56-38.64381-34.133334-59.001905l-26.940952-17.432381L633.904762 158.47619c31.573333-20.358095 43.27619-45.592381 34.133333-59.001904-10.727619-15.725714-47.299048-20.48-85.333333-6.826667l-24.380952 8.411429-3.657143-24.380953C550.4 43.52 528.335238 20.72381 505.295238 20.72381z m-87.04 47.664761c5.607619 1.340952 11.337143 3.047619 17.066667 4.998096a120.07619 120.07619 0 0 1 4.266666-17.92c0.975238-1.340952 1.219048-2.072381 0.853334-2.194286C451.535238 21.820952 476.40381 0 505.295238 0s53.76 21.820952 64.853333 53.272381c0 0 0 0.853333 0.853334 2.194286A120.07619 120.07619 0 0 1 574.780952 73.142857c5.729524-1.950476 11.459048-3.657143 17.066667-4.998095q3.169524 0 2.925714-0.731429c38.887619-8.533333 75.093333-1.340952 89.965715 20.358096s4.388571 50.95619-22.674286 74.971428a62.902857 62.902857 0 0 1-6.095238 5.12 134.095238 134.095238 0 0 1-11.337143 8.045714 134.095238 134.095238 0 0 1 11.337143 8.045715 59.001905 59.001905 0 0 1 6.095238 5.12c27.062857 24.380952 36.571429 53.51619 22.674286 74.849524s-51.078095 29.013333-89.965715 20.48q0-0.975238-2.925714-0.731429c-5.607619-1.340952-11.337143-3.047619-17.066667-4.998095a120.07619 120.07619 0 0 1-4.266666 17.92c-0.975238 1.340952-1.219048 2.072381-0.853334 2.194285-11.093333 31.451429-35.961905 53.272381-64.853333 53.272381s-53.272381-21.577143-64.121905-53.028571c0 0 0-0.853333-0.853333-2.194286a120.07619 120.07619 0 0 1-4.266667-17.92c-5.729524 1.950476-11.459048 3.657143-17.066666 4.998095q-3.169524 0-2.925715 0.731429c-38.887619 8.533333-75.093333 1.340952-89.965714-20.48s-4.388571-50.834286 22.674286-74.849524c2.31619-2.072381 4.388571-3.779048 6.095238-5.12a134.095238 134.095238 0 0 1 11.337143-8.045714 134.095238 134.095238 0 0 1-11.337143-8.045714c-2.438095-2.194286-4.510476-3.900952-6.095238-5.12-27.062857-24.380952-36.571429-53.51619-22.674286-74.971429s51.078095-28.891429 89.965714-20.358095q-0.365714 0.975238 2.681905 0.731428z" fill="#343D33" /><path d="M281.234286 403.139048a21.577143 21.577143 0 0 1 12.190476 25.965714l-4.998095 20.114286A18.041905 18.041905 0 0 1 266.118095 463.238095a21.577143 21.577143 0 0 1-12.190476-25.965714l4.998095-20.114286a18.041905 18.041905 0 0 1 22.308572-14.019047z m47.542857 207.238095a18.16381 18.16381 0 0 1 22.430476 14.750476l4.754286 20.358095A21.333333 21.333333 0 0 1 343.161905 670.47619a18.16381 18.16381 0 0 1-22.430476-14.750476l-4.754286-20.358095a21.333333 21.333333 0 0 1 12.8-25.112381zM501.638095 423.009524a20.72381 20.72381 0 0 1 20.72381 20.723809v20.72381a20.72381 20.72381 0 1 1-41.447619 0v-20.72381a20.72381 20.72381 0 0 1 20.723809-20.723809z m20.72381 373.028571a20.72381 20.72381 0 0 1 20.723809 20.72381v20.723809a20.72381 20.72381 0 0 1-41.447619 0V816.761905a20.72381 20.72381 0 0 1 20.72381-20.72381z m174.323809-185.539047a21.699048 21.699048 0 0 1 12.190476 26.209523l-5.241904 20.114286A17.67619 17.67619 0 0 1 680.228571 670.47619a21.699048 21.699048 0 0 1-12.190476-26.209523l5.241905-20.114286a17.67619 17.67619 0 0 1 23.405714-13.653333z m46.32381-227.961905a17.67619 17.67619 0 0 1 22.552381 13.897143l4.266666 20.114285a21.699048 21.699048 0 0 1-12.190476 26.209524 17.67619 17.67619 0 0 1-22.552381-13.897143l-5.241904-20.114285a21.699048 21.699048 0 0 1 12.55619-26.209524z" fill="#473C3C" /></svg>