<?xml version="1.0" standalone="no"?><!DOCTYPE svg PUBLIC "-//W3C//DTD SVG 1.1//EN" "http://www.w3.org/Graphics/SVG/1.1/DTD/svg11.dtd"><svg class="icon" width="200px" height="200.00px" viewBox="0 0 1024 1024" version="1.1" xmlns="http://www.w3.org/2000/svg"><path d="M511.745527 1006.695825c215.284294 0 389.343936-216.811133 389.343936-458.560636S727.029821 210.703777 511.745527 210.703777 122.40159 312.900199 122.40159 548.135189 296.7666 1006.695825 511.745527 1006.695825z m0 17.304175C291.473559 1024 105.097416 798.43499 105.097416 548.135189 105.097416 319.211133 266.33161 193.399602 512.254473 193.399602c248.467594 0 406.648111 122.147117 406.648111 354.735587-0.508946 254.473161-185.256461 475.864811-407.157057 475.864811z" fill="#584545" /><path d="M511.745527 1006.695825c215.284294 0 389.343936-216.811133 389.343936-458.560636S727.029821 210.703777 511.745527 210.703777 122.40159 312.900199 122.40159 548.135189 296.7666 1006.695825 511.745527 1006.695825z" fill="#FCB4CA" /><path d="M511.745527 383.745527a43.260437 43.260437 0 1 1 43.260437-43.260438 43.260437 43.260437 0 0 1-43.260437 43.260438z m-207.6501 86.520875a43.260437 43.260437 0 1 1 43.260438-43.260438 43.260437 43.260437 0 0 1-43.260438 43.260438z m-34.608349 224.954274a43.260437 43.260437 0 1 1 43.260437-43.260437 43.260437 43.260437 0 0 1-43.260437 43.260437z m449.908548-207.650099a43.260437 43.260437 0 1 1 43.260438-43.260438 43.260437 43.260437 0 0 1-43.260438 43.260438z m17.813122 207.650099a43.260437 43.260437 0 1 1 43.260437-43.260437 43.260437 43.260437 0 0 1-43.260437 43.260437zM391.125249 885.5666a43.260437 43.260437 0 1 1 43.260437-43.260437A43.260437 43.260437 0 0 1 391.125249 885.5666z m242.258449 0a43.260437 43.260437 0 1 1 42.751491-43.260437A43.260437 43.260437 0 0 1 632.874751 885.5666zM511.745527 591.395626a61.073559 61.073559 0 1 1 60.564612-61.073558 60.564612 60.564612 0 0 1-60.564612 61.073558z m8.652087 173.04175a51.912525 51.912525 0 1 1 51.912525-51.912525 51.912525 51.912525 0 0 1-51.912525 51.912525z" fill="#E792AC" /><path d="M468.485089 51.912525l17.304175 138.433399h51.912525q8.652087-95.172962 17.304175-173.041749a138.33161 138.33161 0 0 0-86.520875 34.60835z m-10.789662-13.537972A155.635785 155.635785 0 0 1 555.005964 0h19.33996l-2.137574 19.238171q-8.652087 77.766998-17.304175 173.041749l-0.916103 15.370179h-83.467197l-20.357853-162.862823z" fill="#4B4D3E" /><path d="M468.485089 51.912525a138.33161 138.33161 0 0 1 86.520875-34.60835q-8.652087 77.868787-17.304175 173.041749h-51.912525z" fill="#D0C6B1" /><path d="M458.611531 158.791252Q421.662028 68.198807 340.841352 38.78171T170.85328 50.589264q41.835388 88.862028 122.656064 118.380915a207.344732 207.344732 0 0 0 165.102187-10.178927z m16.082704-6.616302l6.209145 15.26839-14.861233 6.92167a224.648907 224.648907 0 0 1-178.43658 10.99324C229.280318 163.880716 185.001988 121.129225 155.177734 57.918091l-7.430617-15.777336 15.879126-7.328827C227.040954 5.49662 288.419881 1.32326 346.745129 22.495427s101.483897 65.04334 127.949106 129.475945z" fill="#404539" /><path d="M458.306163 158.791252Q421.662028 68.402386 340.230616 38.985288T170.547913 50.792843q41.835388 88.862028 122.147117 118.279125A207.344732 207.344732 0 0 0 458.306163 158.791252z" fill="#C5EB8D" /></svg>