<?xml version="1.0" standalone="no"?><!DOCTYPE svg PUBLIC "-//W3C//DTD SVG 1.1//EN" "http://www.w3.org/Graphics/SVG/1.1/DTD/svg11.dtd"><svg class="icon" width="200px" height="200.00px" viewBox="0 0 1024 1024" version="1.1" xmlns="http://www.w3.org/2000/svg"><path d="M259.882188 64.875352a191.994368 191.994368 0 0 0 108.969776 97.638614 192.206165 192.206165 0 0 0 146.034326-9.742682A192.417962 192.417962 0 0 0 405.916514 55.132671a192.312064 192.312064 0 0 0-146.034326 9.742681z m-15.990706 8.154201l-8.895492-16.943794 17.473288-7.942404a210.526642 210.526642 0 0 1 158.84807-10.589871 210.314845 210.314845 0 0 1 119.136053 105.898714l8.895492 16.943794-17.473288 7.836504a210.526642 210.526642 0 0 1-158.84807 10.589872 210.103048 210.103048 0 0 1-119.136053-105.792815z" fill="#3F473A" /><path d="M259.882188 64.875352a191.994368 191.994368 0 0 0 108.969776 97.638614 192.206165 192.206165 0 0 0 146.034326-9.742682A192.417962 192.417962 0 0 0 405.916514 55.132671a192.312064 192.312064 0 0 0-146.034326 9.742681z" fill="#B0CB64" /><path d="M512.027025 1005.997219a177.486244 177.486244 0 1 0-177.486244-177.486244A177.486244 177.486244 0 0 0 512.027025 1005.997219z m0 18.002781a195.489025 195.489025 0 1 1 195.489025-195.489025A195.489025 195.489025 0 0 1 512.027025 1024z" fill="#37343B" /><path d="M512.027025 828.510975m-177.486244 0a177.486244 177.486244 0 1 0 354.972487 0 177.486244 177.486244 0 1 0-354.972487 0Z" fill="#D9B9F3" /><path d="M643.553227 793.140805a177.486244 177.486244 0 1 0-177.486244-177.592143 177.486244 177.486244 0 0 0 177.486244 177.592143z m0 18.002781A195.489025 195.489025 0 1 1 839.254049 615.548662a195.594924 195.594924 0 0 1-195.700822 195.489025z" fill="#37343B" /><path d="M643.553227 615.548662m-177.486244 0a177.486244 177.486244 0 1 0 354.972488 0 177.486244 177.486244 0 1 0-354.972488 0Z" fill="#D9B9F3" /><path d="M380.394924 615.548662m-177.486244 0a177.486244 177.486244 0 1 0 354.972488 0 177.486244 177.486244 0 1 0-354.972488 0Z" fill="#D9B9F3" /><path d="M380.394924 793.140805a177.486244 177.486244 0 1 0-177.486244-177.592143 177.486244 177.486244 0 0 0 177.486244 177.592143z m0 18.002781a195.489025 195.489025 0 1 1 195.489025-195.594924 195.489025 195.489025 0 0 1-195.489025 195.489025z" fill="#37343B" /><path d="M256.38753 388.395922m-177.486243 0a177.486244 177.486244 0 1 0 354.972487 0 177.486244 177.486244 0 1 0-354.972487 0Z" fill="#DAC5F6" /><path d="M767.56062 388.395922m-177.486243 0a177.486244 177.486244 0 1 0 354.972487 0 177.486244 177.486244 0 1 0-354.972487 0Z" fill="#DAC5F6" /><path d="M256.811125 565.776267A177.486244 177.486244 0 1 0 78.901287 388.290023a177.486244 177.486244 0 0 0 177.909838 177.486244z m0 18.002781a195.489025 195.489025 0 1 1 195.06543-195.489025A195.489025 195.489025 0 0 1 256.811125 583.779048zM767.56062 565.776267a177.486244 177.486244 0 1 0-177.486243-177.486244 177.486244 177.486244 0 0 0 177.486243 177.486244z m0 18.002781a195.489025 195.489025 0 1 1 195.489025-195.489025 195.489025 195.489025 0 0 1-195.489025 195.489025z" fill="#37343B" /><path d="M497.730698 360.015067m-191.676671 0a191.676671 191.676671 0 1 0 383.353343 0 191.676671 191.676671 0 1 0-383.353343 0Z" fill="#DAC5F6" /><path d="M497.730698 551.585839a191.676671 191.676671 0 1 0-191.676671-191.676671 191.676671 191.676671 0 0 0 191.676671 191.676671z m0 18.002782a209.679453 209.679453 0 1 1 209.785352-209.679453 209.679453 209.679453 0 0 1-209.785352 209.679453z" fill="#37343B" /><path d="M539.666589 156.054144a9.001391 9.001391 0 1 1-17.579187-3.812353C540.619677 66.357934 587.638706 15.102957 662.403198 0.171238a9.011981 9.011981 0 1 1 3.494657 17.685085c-67.351582 13.449137-109.075675 58.985583-126.231266 138.197821z" fill="#37343B" /></svg>