<?xml version="1.0" standalone="no"?><!DOCTYPE svg PUBLIC "-//W3C//DTD SVG 1.1//EN" "http://www.w3.org/Graphics/SVG/1.1/DTD/svg11.dtd"><svg class="icon" width="200px" height="119.35px" viewBox="0 0 1716 1024" version="1.1" xmlns="http://www.w3.org/2000/svg"><path d="M155.942484 562.028758L97.045752 620.92549A56.888889 56.888889 0 0 1 16.732026 540.444444l36.643137-36.810457L16.732026 466.823529a56.788497 56.788497 0 1 1 80.313726-80.313725l61.908496 61.741176h219.524183a56.888889 56.888889 0 1 1 0 113.777778z m1403.315032 0H1336.888889a56.888889 56.888889 0 0 1 0-113.777778H1556.078431l61.741177-61.741176a56.888889 56.888889 0 1 1 80.481046 80.313725l-36.643138 36.810458 36.643138 36.810457a56.905621 56.905621 0 0 1-80.481046 80.481046z" fill="#FFFFFF" /><path d="M76.96732 600.847059l66.928105-66.928105h234.248366a28.444444 28.444444 0 0 0 0-56.888889H147.07451L76.96732 406.588235a28.444444 28.444444 0 0 0-40.156862 40.156863l56.888888 56.888889-56.888888 56.888889a28.444444 28.444444 0 0 0 40.156862 40.324183z m78.975164-38.818301L97.045752 620.92549A56.888889 56.888889 0 0 1 16.732026 540.444444l36.643137-36.810457L16.732026 466.823529a56.788497 56.788497 0 1 1 80.313726-80.313725l61.908496 61.741176h219.524183a56.888889 56.888889 0 1 1 0 113.777778z m1403.315032-28.444444h11.879739l66.928104 66.928104a28.444444 28.444444 0 1 0 40.156863-40.324183l-56.888889-56.888889 56.888889-56.888888a28.444444 28.444444 0 0 0 0-40.156863 28.109804 28.109804 0 0 0-40.156863 0l-70.107189 70.107189H1336.888889a28.444444 28.444444 0 0 0 0 56.888889z m-222.368627 28.444444a56.888889 56.888889 0 0 1 0-113.777778H1556.078431l61.741177-61.741176a56.888889 56.888889 0 1 1 80.481046 80.313725l-36.643138 36.810458 36.643138 36.810457a56.905621 56.905621 0 0 1-80.481046 80.481046l-58.896732-58.896732z" fill="#534341" /><path d="M867.555556 995.555556C1204.705882 995.555556 1479.111111 779.043137 1479.111111 512S1204.705882 28.444444 867.555556 28.444444 256 244.956863 256 512s273.735948 483.555556 611.555556 483.555556z m0 28.444444c-351.372549 0-640-227.555556-640-512S515.346405 0 867.555556 0 1507.555556 227.555556 1507.555556 512 1219.764706 1024 867.555556 1024z" fill="#534341" /><path d="M256 512a611.555556 483.555556 0 1 0 1223.111111 0 611.555556 483.555556 0 1 0-1223.111111 0Z" fill="#F8B987" /><path d="M540.444444 597.333333a142.222222 142.222222 0 1 1 142.222223-142.222222 142.389542 142.389542 0 0 1-142.222223 142.222222z m654.222223 0a142.222222 142.222222 0 1 1 142.222222-142.222222 142.389542 142.389542 0 0 1-142.222222 142.222222z" fill="#EF966D" /><path d="M796.444444 284.444444a28.444444 28.444444 0 0 1 28.444445 28.444445v28.444444a28.444444 28.444444 0 1 1-56.888889 0v-28.444444a28.444444 28.444444 0 0 1 28.444444-28.444445z m142.222223 0a28.444444 28.444444 0 0 1 28.444444 28.444445v28.444444a28.444444 28.444444 0 1 1-56.888889 0v-28.444444a28.444444 28.444444 0 0 1 28.444445-28.444445z" fill="#534341" /><path d="M739.555556 455.111111h256q-33.464052 198.943791-128 199.111111T739.555556 455.111111z" fill="#534341" /></svg>